<svg version="1.1" id="Layer_1" xmlns="http://www.w3.org/2000/svg" xmlns:xlink="http://www.w3.org/1999/xlink" x="0px" y="0px"
	 width="100%" viewBox="0 0 118 116" enable-background="new 0 0 118 116" xml:space="preserve">
<path fill="#F08722" opacity="1.000000" stroke="none" 
	d="
M73.000000,117.000000 
	C48.666668,117.000000 24.833334,117.000000 1.000000,117.000000 
	C1.000000,78.333336 1.000000,39.666668 1.000000,1.000000 
	C40.333332,1.000000 79.666664,1.000000 119.000000,1.000000 
	C119.000000,39.666668 119.000000,78.333336 119.000000,117.000000 
	C103.833336,117.000000 88.666664,117.000000 73.000000,117.000000 
M43.026108,57.978939 
	C43.026108,57.978939 42.980183,57.958382 42.057926,58.188297 
	C44.374821,62.750942 46.691715,67.313583 48.946472,72.646957 
	C48.220028,73.975494 47.773212,75.611259 46.714561,76.574791 
	C43.574265,79.432922 43.383644,82.695244 44.366257,86.518555 
	C44.820061,88.284325 44.993340,90.449211 44.387852,92.101067 
	C42.269543,97.880112 45.531116,103.685699 51.714752,103.844551 
	C59.465969,104.043663 67.230919,103.708046 75.439163,103.483467 
	C75.475906,103.045975 75.512642,102.608490 75.777275,101.606285 
	C75.852531,101.417763 75.927788,101.229240 76.424530,101.033051 
	C76.424530,101.033051 76.845970,101.024055 77.290627,101.625885 
	C81.151482,105.124077 85.805183,104.851936 89.768173,102.798798 
	C91.522346,101.890007 92.514992,98.134468 92.568985,95.643379 
	C92.650040,91.903809 89.654099,90.380531 86.190506,89.972961 
	C83.418945,89.646820 80.286575,89.701996 81.466751,84.447144 
	C85.144279,85.485657 88.509346,86.435936 91.909248,87.396042 
	C93.272034,79.757874 87.118622,80.511063 82.218826,78.825256 
	C86.707909,76.966942 90.461395,75.764084 89.630066,70.435921 
	C89.410919,70.022041 89.191772,69.608170 88.984062,68.387344 
	C89.323235,67.129555 89.662407,65.871773 90.138420,64.639145 
	C90.138420,64.639145 90.063644,64.451080 90.604378,63.750908 
	C91.147133,60.530540 90.810478,56.757641 92.414780,54.204235 
	C95.808632,48.802555 96.019455,48.641685 91.603294,43.967594 
	C89.365921,41.599541 87.847916,38.551807 86.206955,35.503555 
	C86.234825,35.378803 86.303749,35.246311 86.281990,35.130917 
	C86.237236,34.893482 86.143997,34.665184 86.337723,33.627079 
	C85.998047,31.677172 85.658379,29.727264 85.378281,27.490547 
	C85.331207,27.284060 85.211494,27.136389 84.997467,26.325798 
	C82.050560,16.354065 65.028694,7.809118 53.488247,12.725598 
	C53.488247,12.725598 53.144722,13.001744 52.404728,13.025164 
	C42.490807,17.072298 35.827679,23.706251 34.733429,35.580654 
	C34.829857,37.332581 34.926289,39.084503 34.987492,41.952267 
	C35.357822,42.681683 35.728149,43.411098 36.098484,44.140518 
	C36.402348,43.769722 36.706211,43.398926 37.016037,42.970562 
	C37.016037,42.970562 36.979622,42.925587 36.134159,43.905708 
	C36.789658,44.079445 37.445160,44.253185 38.061268,44.443253 
	C38.061268,44.443253 38.038799,44.479492 37.245571,43.650768 
	C33.451355,45.690662 37.616806,48.099854 37.202644,50.732613 
	C37.618477,51.493946 38.034309,52.255280 38.825787,53.707169 
	C40.226704,55.147846 41.627621,56.588524 43.026108,57.978939 
M29.365911,97.251160 
	C29.350185,94.760895 29.312016,92.270531 29.323179,89.780388 
	C29.350548,83.674492 29.359699,83.674530 34.948181,85.116043 
	C36.646450,86.310333 38.344719,87.504631 40.759941,89.203110 
	C40.959911,81.927704 39.467773,80.168251 34.349083,80.002586 
	C26.726048,79.755867 24.843079,81.140167 24.745998,87.237045 
	C24.685223,91.053917 24.456654,94.907578 24.868065,98.683197 
	C25.470613,104.212936 29.829996,103.955353 33.927608,103.949097 
	C37.664337,103.943390 40.581291,102.865074 40.919209,98.636444 
	C41.005558,97.555923 40.168888,96.401642 39.756287,95.281250 
	C38.647346,95.915276 36.978378,96.282074 36.526287,97.229523 
	C34.555435,101.359833 32.288147,101.107445 29.365911,97.251160 
z"/>
<path fill="#ED8826" opacity="1.000000" stroke="none" 
	d="
M38.038799,44.479492 
	C38.038799,44.479492 38.061268,44.443253 37.942291,44.139576 
	C37.542084,43.532463 37.260853,43.229023 36.979622,42.925587 
	C36.979622,42.925587 37.016037,42.970562 37.095192,42.554565 
	C36.077335,32.524677 39.320599,24.758181 47.298367,19.224726 
	C60.172718,10.294954 80.523781,16.584587 82.172798,30.949823 
	C83.077606,38.831921 85.735680,44.212658 91.317352,48.938496 
	C91.505379,49.097698 91.464920,49.526787 91.530960,49.830078 
	C91.244965,49.771904 90.958977,49.713730 90.672981,49.655556 
	C89.238907,53.687668 87.804825,57.719784 86.536621,61.285511 
	C86.765251,62.371857 87.186127,63.275120 87.076767,64.108833 
	C86.912361,65.362335 85.984825,66.592758 86.063049,67.788422 
	C86.536087,75.018944 86.600883,75.014702 79.526855,76.264587 
	C77.439018,76.265495 75.768196,76.299271 73.745193,76.221779 
	C72.268181,75.733482 71.143364,75.356453 70.013496,74.511917 
	C70.005127,67.928368 70.121529,61.809139 69.959145,55.697319 
	C69.837585,51.122063 69.356812,46.556351 68.930328,42.000671 
	C68.824684,42.014957 68.611588,42.022350 68.594688,41.867016 
	C68.474609,41.499897 68.305229,41.396843 67.658340,41.273804 
	C66.817413,42.581192 66.036087,44.012402 66.016037,45.454201 
	C65.898109,53.936375 66.009605,62.421658 65.905731,70.904198 
	C65.888573,72.305176 65.190125,73.697815 64.806526,75.094307 
	C64.159851,75.004005 63.513180,74.913696 62.866505,74.823395 
	C62.659042,60.540916 62.959225,46.228859 62.702995,31.949224 
	C61.767548,31.947859 60.832104,31.946491 59.896656,31.945126 
	C58.424225,46.149277 60.001877,60.555561 58.154991,74.959305 
	C56.923542,73.737267 56.205139,72.357208 56.187153,70.968086 
	C56.079483,62.652008 56.161121,54.333675 56.108635,46.016541 
	C56.098270,44.373791 55.779797,42.732986 55.603413,41.091290 
	C54.957008,41.086266 54.310600,41.081242 53.664192,41.076218 
	C52.240078,46.481377 53.220863,52.159569 53.045887,57.686455 
	C52.865379,63.388065 53.005772,69.099838 53.005772,74.807159 
	C52.594166,74.868866 52.182560,74.930565 51.770954,74.992264 
	C51.275173,73.904007 50.779392,72.815750 50.329620,71.589172 
	C50.347092,71.239349 50.236645,71.087212 50.049191,70.742966 
	C49.994278,70.334839 49.934460,70.178192 49.851559,69.663925 
	C47.545708,65.523666 45.262943,61.741024 42.980183,57.958382 
	C42.980183,57.958382 43.026108,57.978939 43.034760,57.581764 
	C42.208847,55.572338 41.427032,53.926682 40.459499,52.398624 
	C40.360920,52.242943 39.146664,52.793686 38.450142,53.016617 
	C38.034309,52.255280 37.618477,51.493946 37.514732,50.821083 
	C38.291695,50.437511 39.195786,49.910530 39.144806,49.503025 
	C38.932873,47.808907 38.433010,46.150806 38.038799,44.479492 
z"/>
<path fill="#FDF8F3" opacity="1.000000" stroke="none" 
	d="
M49.874645,70.021545 
	C49.934460,70.178192 49.994278,70.334839 50.075966,70.868820 
	C50.142845,71.413116 50.204773,71.573563 50.283611,71.727486 
	C50.779392,72.815750 51.275173,73.904007 51.770954,74.992264 
	C52.182560,74.930565 52.594166,74.868866 53.005772,74.807159 
	C53.005772,69.099838 52.865379,63.388065 53.045887,57.686455 
	C53.220863,52.159569 52.240078,46.481377 53.664192,41.076218 
	C54.310600,41.081242 54.957008,41.086266 55.603413,41.091290 
	C55.779797,42.732986 56.098270,44.373791 56.108635,46.016541 
	C56.161121,54.333675 56.079483,62.652008 56.187153,70.968086 
	C56.205139,72.357208 56.923542,73.737267 58.154991,74.959305 
	C60.001877,60.555561 58.424225,46.149277 59.896656,31.945126 
	C60.832104,31.946491 61.767548,31.947859 62.702995,31.949224 
	C62.959225,46.228859 62.659042,60.540916 62.866505,74.823395 
	C63.513180,74.913696 64.159851,75.004005 64.806526,75.094307 
	C65.190125,73.697815 65.888573,72.305176 65.905731,70.904198 
	C66.009605,62.421658 65.898109,53.936375 66.016037,45.454201 
	C66.036087,44.012402 66.817413,42.581192 67.732697,41.390076 
	C68.330910,41.782967 68.461983,41.912064 68.611588,42.022350 
	C68.611588,42.022350 68.824684,42.014957 68.912109,42.469994 
	C68.996925,52.127357 68.948799,61.330124 69.037735,70.531570 
	C69.052094,72.017204 69.676254,73.496956 70.018539,74.979424 
	C71.143364,75.356453 72.268181,75.733482 74.050987,76.359711 
	C76.453934,76.505089 78.198906,76.401276 79.943871,76.297462 
	C86.600883,75.014702 86.536087,75.018944 86.063049,67.788422 
	C85.984825,66.592758 86.912361,65.362335 87.076767,64.108833 
	C87.186127,63.275120 86.765251,62.371857 86.536621,61.285511 
	C87.804825,57.719784 89.238907,53.687668 90.672981,49.655556 
	C90.958977,49.713730 91.244965,49.771904 91.530960,49.830078 
	C91.464920,49.526787 91.505379,49.097698 91.317352,48.938496 
	C85.735680,44.212658 83.077606,38.831921 82.172798,30.949823 
	C80.523781,16.584587 60.172718,10.294954 47.298367,19.224726 
	C39.320599,24.758181 36.077335,32.524677 37.092213,42.583347 
	C36.706211,43.398926 36.402348,43.769722 36.098480,44.140518 
	C35.728149,43.411098 35.357822,42.681683 35.008858,40.976616 
	C35.006107,38.317390 34.981987,36.633812 34.957870,34.950233 
	C35.827679,23.706251 42.490807,17.072298 52.868507,12.988266 
	C53.332283,12.951368 53.699921,12.820139 53.699921,12.820139 
	C65.028694,7.809118 82.050560,16.354065 85.045959,26.812988 
	C85.153961,27.466404 85.228706,27.625462 85.318710,27.777357 
	C85.658379,29.727264 85.998047,31.677172 86.188812,34.375546 
	C86.028152,35.353130 86.016411,35.582249 86.004677,35.811363 
	C87.847916,38.551807 89.365921,41.599541 91.603294,43.967594 
	C96.019455,48.641685 95.808632,48.802555 92.414780,54.204235 
	C90.810478,56.757641 91.147133,60.530540 90.324814,64.127213 
	C90.045258,64.503525 90.001587,64.613983 90.001587,64.613983 
	C89.662407,65.871773 89.323235,67.129555 89.016998,69.016434 
	C89.232376,70.066246 89.414825,70.486977 89.597267,70.907707 
	C90.461395,75.764084 86.707909,76.966942 82.218826,78.825256 
	C87.118622,80.511063 93.272034,79.757874 91.909248,87.396042 
	C88.509346,86.435936 85.144279,85.485657 81.466751,84.447144 
	C80.286575,89.701996 83.418945,89.646820 86.190506,89.972961 
	C89.654099,90.380531 92.650040,91.903809 92.568985,95.643379 
	C92.514992,98.134468 91.522346,101.890007 89.768173,102.798798 
	C85.805183,104.851936 81.151482,105.124077 77.072662,100.970337 
	C77.068405,99.021179 77.282120,97.727570 77.495834,96.433960 
	C78.702545,97.113525 79.854111,97.932487 81.129990,98.437172 
	C82.703728,99.059662 84.387962,99.764069 86.010017,99.730743 
	C86.687462,99.716820 88.100952,97.387154 87.840019,96.989479 
	C87.056168,95.794853 85.685417,94.908623 84.396034,94.154442 
	C83.742439,93.772141 82.751945,94.017479 81.946762,93.834137 
	C77.366592,92.791183 75.032104,88.941643 76.658493,84.434624 
	C77.355469,82.503166 79.056160,80.933907 80.424355,79.027977 
	C78.370346,78.749077 76.405853,78.273628 74.436409,78.252174 
	C67.112640,78.172363 59.761475,77.912514 52.480251,78.482414 
	C50.615711,78.628349 47.747437,81.411850 47.501923,83.269310 
	C47.102901,86.288132 49.957588,87.595703 52.983028,87.597778 
	C58.143829,87.601311 63.309189,87.500031 68.461830,87.709091 
	C69.581184,87.754509 70.654930,88.923950 71.749687,89.575691 
	C70.698097,90.075516 69.657700,90.977959 68.593033,91.007561 
	C63.103329,91.160248 57.565166,90.708771 52.137569,91.311501 
	C50.344002,91.510674 48.830002,94.227341 47.188175,95.792938 
	C48.896450,97.217400 50.402557,99.229523 52.368240,99.905769 
	C54.453087,100.623009 56.978725,99.980995 59.304230,100.092201 
	C64.872887,100.358528 70.437065,100.718529 76.003052,101.040710 
	C75.927788,101.229240 75.852531,101.417763 75.555450,102.048737 
	C75.219070,102.861862 75.104507,103.232544 74.989944,103.603218 
	C67.230919,103.708046 59.465969,104.043663 51.714752,103.844551 
	C45.531116,103.685699 42.269543,97.880112 44.387852,92.101067 
	C44.993340,90.449211 44.820061,88.284325 44.366257,86.518555 
	C43.383644,82.695244 43.574265,79.432922 46.714561,76.574791 
	C47.773212,75.611259 48.220028,73.975494 49.043289,72.012367 
	C49.384949,70.925697 49.629799,70.473625 49.874645,70.021545 
z"/>
<path fill="#EC8A2C" opacity="1.000000" stroke="none" 
	d="
M76.213791,101.036880 
	C70.437065,100.718529 64.872887,100.358528 59.304230,100.092201 
	C56.978725,99.980995 54.453087,100.623009 52.368240,99.905769 
	C50.402557,99.229523 48.896450,97.217400 47.188175,95.792938 
	C48.830002,94.227341 50.344002,91.510674 52.137569,91.311501 
	C57.565166,90.708771 63.103329,91.160248 68.593033,91.007561 
	C69.657700,90.977959 70.698097,90.075516 71.749687,89.575691 
	C70.654930,88.923950 69.581184,87.754509 68.461830,87.709091 
	C63.309189,87.500031 58.143829,87.601311 52.983028,87.597778 
	C49.957588,87.595703 47.102901,86.288132 47.501923,83.269310 
	C47.747437,81.411850 50.615711,78.628349 52.480251,78.482414 
	C59.761475,77.912514 67.112640,78.172363 74.436409,78.252174 
	C76.405853,78.273628 78.370346,78.749077 80.424355,79.027977 
	C79.056160,80.933907 77.355469,82.503166 76.658493,84.434624 
	C75.032104,88.941643 77.366592,92.791183 81.946762,93.834137 
	C82.751945,94.017479 83.742439,93.772141 84.396034,94.154442 
	C85.685417,94.908623 87.056168,95.794853 87.840019,96.989479 
	C88.100952,97.387154 86.687462,99.716820 86.010017,99.730743 
	C84.387962,99.764069 82.703728,99.059662 81.129990,98.437172 
	C79.854111,97.932487 78.702545,97.113525 77.495834,96.433960 
	C77.282120,97.727570 77.068405,99.021179 76.850327,100.669418 
	C76.845970,101.024055 76.424530,101.033051 76.213791,101.036880 
z"/>
<path fill="#FEF9F5" opacity="1.000000" stroke="none" 
	d="
M29.441795,97.710922 
	C32.288147,101.107445 34.555435,101.359833 36.526287,97.229523 
	C36.978378,96.282074 38.647346,95.915276 39.756287,95.281250 
	C40.168888,96.401642 41.005558,97.555923 40.919209,98.636444 
	C40.581291,102.865074 37.664337,103.943390 33.927608,103.949097 
	C29.829996,103.955353 25.470613,104.212936 24.868065,98.683197 
	C24.456654,94.907578 24.685223,91.053917 24.745998,87.237045 
	C24.843079,81.140167 26.726048,79.755867 34.349083,80.002586 
	C39.467773,80.168251 40.959911,81.927704 40.759941,89.203110 
	C38.344719,87.504631 36.646450,86.310333 34.948181,85.116043 
	C29.359699,83.674530 29.350548,83.674492 29.323179,89.780388 
	C29.312016,92.270531 29.350185,94.760895 29.441795,97.710922 
z"/>
<path fill="#FDF6F0" opacity="1.000000" stroke="none" 
	d="
M49.851559,69.663925 
	C49.629799,70.473625 49.384949,70.925697 49.074356,71.626999 
	C46.691715,67.313583 44.374821,62.750942 42.519054,58.073341 
	C45.262943,61.741024 47.545708,65.523666 49.851559,69.663925 
z"/>
<path fill="#FDF6F0" opacity="1.000000" stroke="none" 
	d="
M38.637962,53.361893 
	C39.146664,52.793686 40.360920,52.242943 40.459499,52.398624 
	C41.427032,53.926682 42.208847,55.572338 43.035973,57.606895 
	C41.627621,56.588524 40.226704,55.147846 38.637962,53.361893 
z"/>
<path fill="#FDF8F3" opacity="1.000000" stroke="none" 
	d="
M37.642185,44.065132 
	C38.433010,46.150806 38.932873,47.808907 39.144806,49.503025 
	C39.195786,49.910530 38.291695,50.437511 37.382317,50.596916 
	C37.616806,48.099854 33.451355,45.690662 37.642185,44.065132 
z"/>
<path fill="#FDF6F0" opacity="1.000000" stroke="none" 
	d="
M34.845650,35.265442 
	C34.981987,36.633812 35.006107,38.317390 35.026474,40.418701 
	C34.926289,39.084503 34.829857,37.332581 34.845650,35.265442 
z"/>
<path fill="#FDF6F0" opacity="1.000000" stroke="none" 
	d="
M89.613663,70.671814 
	C89.414825,70.486977 89.232376,70.066246 89.011276,69.419907 
	C89.191772,69.608170 89.410919,70.022041 89.613663,70.671814 
z"/>
<path fill="#FDF6F0" opacity="1.000000" stroke="none" 
	d="
M75.214554,103.543343 
	C75.104507,103.232544 75.219070,102.861862 75.441505,102.331093 
	C75.512642,102.608490 75.475906,103.045975 75.214554,103.543343 
z"/>
<path fill="#FDF6F0" opacity="1.000000" stroke="none" 
	d="
M36.556892,43.415649 
	C37.260853,43.229023 37.542084,43.532463 37.961987,44.131413 
	C37.445160,44.253185 36.789658,44.079445 36.556892,43.415649 
z"/>
<path fill="#FDF6F0" opacity="1.000000" stroke="none" 
	d="
M86.105820,35.657459 
	C86.016411,35.582249 86.028152,35.353130 86.055305,34.778572 
	C86.143997,34.665184 86.237236,34.893482 86.281990,35.130917 
	C86.303749,35.246311 86.234825,35.378803 86.105820,35.657459 
z"/>
<path fill="#FDF6F0" opacity="1.000000" stroke="none" 
	d="
M90.070007,64.626564 
	C90.001587,64.613983 90.045258,64.503525 90.054451,64.477303 
	C90.063644,64.451080 90.138420,64.639145 90.070007,64.626564 
z"/>
<path fill="#FDF6F0" opacity="1.000000" stroke="none" 
	d="
M85.348495,27.633953 
	C85.228706,27.625462 85.153961,27.466404 85.056793,27.173859 
	C85.211494,27.136389 85.331207,27.284060 85.348495,27.633953 
z"/>
<path fill="#FDF6F0" opacity="1.000000" stroke="none" 
	d="
M53.594086,12.772869 
	C53.699921,12.820139 53.332283,12.951368 53.238503,12.976557 
	C53.144722,13.001744 53.488247,12.725598 53.594086,12.772869 
z"/>
<path fill="#E18124" opacity="1.000000" stroke="none" 
	d="
M70.013496,74.511917 
	C69.676254,73.496956 69.052094,72.017204 69.037735,70.531570 
	C68.948799,61.330124 68.996925,52.127357 69.017761,42.455711 
	C69.356812,46.556351 69.837585,51.122063 69.959145,55.697319 
	C70.121529,61.809139 70.005127,67.928368 70.013496,74.511917 
z"/>
<path fill="#FDF6F0" opacity="1.000000" stroke="none" 
	d="
M79.526855,76.264587 
	C78.198906,76.401276 76.453934,76.505089 74.403175,76.470978 
	C75.768196,76.299271 77.439018,76.265495 79.526855,76.264587 
z"/>
<path fill="#FDF6F0" opacity="1.000000" stroke="none" 
	d="
M68.594688,41.867016 
	C68.461983,41.912064 68.330910,41.782967 68.144005,41.518787 
	C68.305229,41.396843 68.474609,41.499897 68.594688,41.867016 
z"/>
<path fill="#FDF6F0" opacity="1.000000" stroke="none" 
	d="
M50.329620,71.589172 
	C50.204773,71.573563 50.142845,71.413116 50.071053,71.120293 
	C50.236645,71.087212 50.347092,71.239349 50.329620,71.589172 
z"/>
</svg>